<?xml version="1.0" encoding="UTF-8" standalone="no"?>
<!-- Created with Inkscape (http://www.inkscape.org/) -->

<svg
   xmlns:dc="http://purl.org/dc/elements/1.1/"
   xmlns:cc="http://creativecommons.org/ns#"
   xmlns:rdf="http://www.w3.org/1999/02/22-rdf-syntax-ns#"
   xmlns:svg="http://www.w3.org/2000/svg"
   xmlns="http://www.w3.org/2000/svg"
   xmlns:sodipodi="http://sodipodi.sourceforge.net/DTD/sodipodi-0.dtd"
   xmlns:inkscape="http://www.inkscape.org/namespaces/inkscape"
   width="100"
   height="100"
   viewBox="0 0 100 100"
   id="svg2"
   version="1.1"
   sodipodi:docname="armor.svg">
  <defs
     id="defs4" />
  <sodipodi:namedview
     id="base"
     pagecolor="#ffffff"
     bordercolor="#666666"
     borderopacity="1.0"
     showgrid="false"
     units="px" />
  <metadata
     id="metadata7">
    <rdf:RDF>
      <cc:Work
         rdf:about="">
        <dc:format>image/svg+xml</dc:format>
        <dc:type
           rdf:resource="http://purl.org/dc/dcmitype/StillImage" />
        <dc:title></dc:title>
      </cc:Work>
    </rdf:RDF>
  </metadata>
  <g
     inkscape:label="Layer 1"
     inkscape:groupmode="layer"
     id="layer1"
     transform="translate(0,-952.36214)">
    <path
       style="opacity:0.50892857;fill:#552200;fill-rule:evenodd;stroke:#000000;stroke-width:1.9780376px;stroke-linecap:butt;stroke-linejoin:miter;stroke-opacity:1"
       d="m 21.760662,961.35358 c 2.825765,-2.82577 2.486176,-3.31316 4.238657,-3.53222 4.238657,-0.52984 8.653914,-1.23628 9.36035,-0.17664 0.706457,1.05966 0,5.1217 3.885439,7.77085 3.885438,2.64916 8.124077,6.00475 11.12646,5.82816 3.002384,-0.17664 12.186134,-1.23628 14.128844,-5.82816 0.769378,-1.81852 1.412873,-6.88781 3.532202,-7.06442 2.119329,-0.17663 8.477313,-2.29595 9.536969,0 1.059654,2.29593 0.176638,6.8878 0,9.18375 -0.176639,2.29594 3.5322,11.8329 6.004747,16.07156 2.472566,4.23864 4.591872,5.29831 4.768498,8.30067 0.176636,3.00236 0.706436,5.65158 -0.883059,7.77086 -1.589491,2.11931 -4.945093,9.18381 -6.181366,14.83541 -1.236275,5.6514 0.176638,22.7827 -0.353219,23.8424 -0.529836,1.0596 -19.603774,9.8901 -30.023779,9.7135 -10.420024,-0.176 -27.90447,-8.124 -28.787504,-9.7135 -0.883056,-1.5895 -1.809311,-14.0732 -1.766112,-16.6013 0.07932,-4.6408 -1.117887,-8.33 -2.119328,-11.833 -0.879158,-3.0754 -4.945094,-9.1838 -6.534586,-14.65879 -1.58949,-5.47489 1.059655,-6.71116 2.649146,-7.94743 1.589513,-1.23627 6.887824,-8.12409 7.947479,-12.18614 1.059673,-4.06204 1.589491,-4.41525 -0.176639,-9.00713 l -0.353219,-4.7685 z"
       id="path4147"
       inkscape:connector-curvature="0"
       sodipodi:nodetypes="cscscscssssssssssssssccc" />
  </g>
</svg>
