<?xml version="1.0" encoding="UTF-8" standalone="no"?>
<svg
   xmlns:dc="http://purl.org/dc/elements/1.1/"
   xmlns:cc="http://creativecommons.org/ns#"
   xmlns:rdf="http://www.w3.org/1999/02/22-rdf-syntax-ns#"
   xmlns:svg="http://www.w3.org/2000/svg"
   xmlns="http://www.w3.org/2000/svg"
   version="1.1"
   id="svg2"
   viewBox="0 0 100 100"
   height="100"
   width="100">
  <defs
     id="defs4" />
  <g
     id="layer7">
    <path
       id="path4456"
       d="m 9.8471413,67.163976 c 0,0 1.8057417,0.515927 2.8375957,0.171977 1.031852,-0.343952 12.726186,-5.933155 13.156125,-7.136983 0.429938,-1.203829 0.601913,-1.719755 -0.343952,-3.181546 -0.945864,-1.461792 -2.321668,-1.375805 -2.321668,-1.375805 0,0 1.203828,-2.923583 2.149692,-4.385375 0.945866,-1.461791 4.98729,-0.257962 4.98729,-0.257962 -1.941039,0.844941 -1.814422,1.208363 -2.321661,2.751607 -0.343952,1.203828 -0.257965,3.00957 0.257963,3.43951 0.515926,0.429939 5.288245,-2.859093 5.288245,-2.859093 0,0 0.363658,-1.833984 1.074847,-2.214184 0.577517,-0.308739 2.579633,0.601914 2.579633,0.601914 0,0 49.099002,-26.828175 49.872892,-26.914165 0.773889,-0.08598 5.761178,-0.08598 5.761178,-0.08598 0,0 -2.392242,4.634929 -3.166131,4.978881 -0.773889,0.34395 -49.262853,28.591808 -49.262853,28.591808 0,0 0.03294,1.193544 -0.311014,1.70947 0,0 -1.131551,1.40284 -3.495993,0.146798 0,0 -4.55735,2.665619 -4.55735,3.095558 0,0.429939 2.321668,2.149694 2.923584,2.063707 0.601914,-0.08598 1.203829,0 1.461791,-0.687904 0.257964,-0.687901 0.515926,-1.289816 0.515926,-1.289816 0,0 1.461793,1.89173 -0.08598,3.611486 -1.54778,1.719756 -4.471363,2.063706 -5.417227,1.547779 -0.945866,-0.515927 -1.633767,-1.203828 -1.633767,-1.203828 0,0 0.773889,-1.461791 -0.515927,-2.751608 -1.289815,-1.289816 -1.031852,-0.515926 -1.031852,-0.515926 0,0 -12.726188,6.363092 -13.414089,6.965007 -0.687902,0.601915 -0.77389,1.805743 -0.77389,1.805743 0,0 -4.6433367,1.11784 -5.4172273,-0.257964 -0.7738895,-1.375804 1.2038276,-6.363093 1.2038196,-6.363106 z"
       style="fill:#2b1100;fill-rule:evenodd;stroke:#000000;stroke-width:1.36197639px;stroke-linecap:butt;stroke-linejoin:miter;stroke-opacity:1;fill-opacity:0.54571426;opacity:0.5" />
  </g>
</svg>
