<?xml version="1.0" encoding="UTF-8" standalone="no"?>
<!-- Created with Inkscape (http://www.inkscape.org/) -->
<svg
   xmlns:dc="http://purl.org/dc/elements/1.1/"
   xmlns:cc="http://creativecommons.org/ns#"
   xmlns:rdf="http://www.w3.org/1999/02/22-rdf-syntax-ns#"
   xmlns="http://www.w3.org/2000/svg"
   xmlns:sodipodi="http://sodipodi.sourceforge.net/DTD/sodipodi-0.dtd"
   xmlns:inkscape="http://www.inkscape.org/namespaces/inkscape"
   width="100"
   height="100"
   viewBox="0 0 100 100"
   id="svg2"
   version="1.1"
   sodipodi:docname="range.svg">
  <defs
     id="defs4" />
  <sodipodi:namedview
     id="base"
     pagecolor="#ffffff"
     bordercolor="#666666"
     borderopacity="1.0"
     showgrid="false"
     units="px" />
  <g
     inkscape:groupmode="layer"
     id="layer2"
     inkscape:label="bow">
    <path
       style="opacity:0.5;fill:#000000;fill-rule:evenodd;stroke:#000000;stroke-width:1.26664114px;stroke-linecap:butt;stroke-linejoin:miter;stroke-opacity:1"
       d="m 77.391257,21.435975 -5.597817,12.715039 -5.466152,-0.546061 -28.160344,26.134962 0.799688,4.398284 -8.095573,6.519109 -7.760661,-1.039595 -0.249224,-6.070057 8.607795,-6.577543 4.958065,1.119563 28.489089,-26.177789 0.239906,-5.597815 z"
       id="path4209"
       inkscape:connector-curvature="0"
       sodipodi:nodetypes="ccccccccccccc" />
    <path
       style="fill:#2b1100;fill-rule:evenodd;stroke:#000000;stroke-width:1.26664114px;stroke-linecap:butt;stroke-linejoin:miter;stroke-opacity:1;opacity:0.5"
       d="m 34.809324,19.817463 c -1.168828,0.138055 -1.983015,2.916391 -3.149285,2.81036 0,0 -12.445994,-1.381055 -14.685121,-0.581368 -2.239125,0.799688 -0.573946,5.875533 -0.573946,5.875533 l 1.447236,1.071202 c 0,0 0.88566,33.357088 0.88566,38.635028 0,5.277942 1.415144,6.224879 6.751295,6.756244 l 41.126255,5.113569 c 0,0 0.744293,3.971329 1.281485,4.480248 0.565465,0.424098 2.36647,0.858094 3.780132,0.603634 1.44197,-0.480644 1.439813,-8.478085 1.439813,-8.478085 0,0 0.667603,-5.407964 1.600619,-6.397527 0.622011,-0.622011 4.901523,-0.854559 4.222962,-2.409587 -0.537185,-1.668122 -0.500427,-2.185522 -0.415615,-4.334287 0.08482,-1.752942 -3.807472,0.187014 -4.287284,-3.651489 C 73.753717,55.472435 72.793578,49.713769 69.115012,46.355079 65.436447,42.99639 57.842631,33.996038 53.044503,29.997598 48.246375,25.999157 42.082371,24.136973 40.964408,23.966208 c -1.115542,-0.170395 -1.1882,-4.121739 -2.172092,-3.86672 -1.801692,0.324415 -1.75344,0.282017 -3.743023,-0.272128 -0.08129,-0.01591 -0.162046,-0.0191 -0.239969,-0.0099 z m -12.473446,8.821958 c 0,0 15.040303,1.243316 20.808044,3.844453 5.767741,2.601139 21.488722,12.554025 22.732744,23.071671 1.244024,10.517644 0.905452,19.791268 0.905452,19.791268 0,0 -43.090539,-3.731361 -44.67384,-4.636105 -1.244023,-0.904743 0.2276,-42.071287 0.2276,-42.071287 z"
       id="path4180"
       inkscape:connector-curvature="0" />
  </g>
</svg>
