<?xml version="1.0" encoding="UTF-8" standalone="no"?>
<svg
   xmlns:dc="http://purl.org/dc/elements/1.1/"
   xmlns:cc="http://creativecommons.org/ns#"
   xmlns:rdf="http://www.w3.org/1999/02/22-rdf-syntax-ns#"
   xmlns:svg="http://www.w3.org/2000/svg"
   xmlns="http://www.w3.org/2000/svg"
   version="1.1"
   id="svg2"
   viewBox="0 0 100 100"
   height="100"
   width="100">
  <defs
     id="defs4" />
  <g
     id="layer5">
    <path
       id="path4352"
       d="m 15.718038,39.167116 c 0,0 5.323189,-12.488466 5.830885,-13.384575 1.696429,-0.424107 20.027824,5.398797 20.534858,7.680448 0.507033,2.281651 -0.380276,8.239295 -0.760551,9.633637 -0.380275,1.394342 -1.140825,3.042201 -1.140825,3.042201 l 49.05549,16.732106 c 0,0 1.140831,1.014067 0.633794,3.042201 -0.507036,2.028134 -2.535168,2.154893 -2.535168,2.154893 L 38.154271,51.969713 33.717728,64.011759 c -0.17362,0.505076 -3.012102,3.644426 -3.422476,3.675993 -0.552427,0.01578 -16.749358,-5.799808 -17.112382,-5.957644 -0.568211,-0.441942 -1.236506,-3.18719 -1.394342,-3.802752 -0.07892,-0.489293 -0.76055,-5.957643 -0.76055,-5.957643 l 2.796373,-8.522909 -0.894997,-0.730453 c 0,0 -0.0301,-1.476944 0.730453,-2.61777 0.214045,-0.321068 0.448226,-0.736865 0.706458,-0.878812 0.659325,-0.362425 1.351773,-0.05266 1.351773,-0.05265 z"
       style="opacity:0.5;fill:#2b1100;fill-rule:evenodd;stroke:#000000;stroke-width:0.70984691px;stroke-linecap:butt;stroke-linejoin:miter;stroke-opacity:1" />
  </g>
</svg>
