<?xml version="1.0" encoding="UTF-8" standalone="no"?>
<!-- Created with Inkscape (http://www.inkscape.org/) -->

<svg
   xmlns:dc="http://purl.org/dc/elements/1.1/"
   xmlns:cc="http://creativecommons.org/ns#"
   xmlns:rdf="http://www.w3.org/1999/02/22-rdf-syntax-ns#"
   xmlns:svg="http://www.w3.org/2000/svg"
   xmlns="http://www.w3.org/2000/svg"
   xmlns:sodipodi="http://sodipodi.sourceforge.net/DTD/sodipodi-0.dtd"
   xmlns:inkscape="http://www.inkscape.org/namespaces/inkscape"
   width="100"
   height="100"
   viewBox="0 0 100 100"
   id="svg2"
   version="1.1"
   inkscape:version="0.91 r13725"
   sodipodi:docname="itemTypes.svg">
  <defs
     id="defs4" />
  <sodipodi:namedview
     id="base"
     pagecolor="#ffffff"
     bordercolor="#666666"
     borderopacity="1.0"
     inkscape:pageopacity="0.0"
     inkscape:pageshadow="2"
     inkscape:zoom="9.19"
     inkscape:cx="31.854897"
     inkscape:cy="57.53153"
     inkscape:document-units="px"
     inkscape:current-layer="layer9"
     showgrid="false"
     inkscape:window-width="1855"
     inkscape:window-height="1056"
     inkscape:window-x="65"
     inkscape:window-y="24"
     inkscape:window-maximized="1"
     units="px" />
  <metadata
     id="metadata7">
    <rdf:RDF>
      <cc:Work
         rdf:about="">
        <dc:format>image/svg+xml</dc:format>
        <dc:type
           rdf:resource="http://purl.org/dc/dcmitype/StillImage" />
        <dc:title></dc:title>
      </cc:Work>
    </rdf:RDF>
  </metadata>
  <g
     inkscape:label="Layer 1"
     inkscape:groupmode="layer"
     id="layer1"
     transform="translate(0,-952.36214)"
     style="display:none">
    <path
       style="opacity:0.50899999;fill:#552200;fill-rule:evenodd;stroke:#000000;stroke-width:1.9780376px;stroke-linecap:butt;stroke-linejoin:miter;stroke-opacity:1"
       d="m 21.760662,961.35358 c 2.825765,-2.82577 2.486176,-3.31316 4.238657,-3.53222 4.238657,-0.52984 8.653914,-1.23628 9.36035,-0.17664 0.706457,1.05966 0,5.1217 3.885439,7.77085 3.885438,2.64916 8.124077,6.00475 11.12646,5.82816 3.002384,-0.17664 12.186134,-1.23628 14.128844,-5.82816 0.769378,-1.81852 1.412873,-6.88781 3.532202,-7.06442 2.119329,-0.17663 8.477313,-2.29595 9.536969,0 1.059654,2.29593 0.176638,6.8878 0,9.18375 -0.176639,2.29594 3.5322,11.8329 6.004747,16.07156 2.472566,4.23864 4.591872,5.29831 4.768498,8.30067 0.176636,3.00236 0.706436,5.65158 -0.883059,7.77086 -1.589491,2.11931 -4.945093,9.18381 -6.181366,14.83541 -1.236275,5.6514 0.176638,22.7827 -0.353219,23.8424 -0.529836,1.0596 -19.603774,9.8901 -30.023779,9.7135 -10.420024,-0.176 -27.90447,-8.124 -28.787504,-9.7135 -0.883056,-1.5895 -1.809311,-14.0732 -1.766112,-16.6013 0.07932,-4.6408 -1.117887,-8.33 -2.119328,-11.833 -0.879158,-3.0754 -4.945094,-9.1838 -6.534586,-14.65879 -1.58949,-5.47489 1.059655,-6.71116 2.649146,-7.94743 1.589513,-1.23627 6.887824,-8.12409 7.947479,-12.18614 1.059673,-4.06204 1.589491,-4.41525 -0.176639,-9.00713 l -0.353219,-4.7685 z"
       id="path4147"
       inkscape:connector-curvature="0"
       sodipodi:nodetypes="cscscscssssssssssssssccc" />
  </g>
  <g
     inkscape:groupmode="layer"
     id="layer2"
     inkscape:label="bow"
     style="display:none">
    <path
       style="opacity:0.5;fill:#000000;fill-rule:evenodd;stroke:#000000;stroke-width:1.26664114px;stroke-linecap:butt;stroke-linejoin:miter;stroke-opacity:1"
       d="m 77.391257,21.435975 -5.597817,12.715039 -5.466152,-0.546061 -28.160344,26.134962 0.799688,4.398284 -8.095573,6.519109 -7.760661,-1.039595 -0.249224,-6.070057 8.607795,-6.577543 4.958065,1.119563 28.489089,-26.177789 0.239906,-5.597815 z"
       id="path4209"
       inkscape:connector-curvature="0"
       sodipodi:nodetypes="ccccccccccccc" />
    <path
       style="opacity:0.5;fill:#2b1100;fill-rule:evenodd;stroke:#000000;stroke-width:1.26664114px;stroke-linecap:butt;stroke-linejoin:miter;stroke-opacity:1"
       d="m 34.809324,19.817463 c -1.168828,0.138055 -1.983015,2.916391 -3.149285,2.81036 0,0 -12.445994,-1.381055 -14.685121,-0.581368 -2.239125,0.799688 -0.573946,5.875533 -0.573946,5.875533 l 1.447236,1.071202 c 0,0 0.88566,33.357088 0.88566,38.635028 0,5.277942 1.415144,6.224879 6.751295,6.756244 l 41.126255,5.113569 c 0,0 0.744293,3.971329 1.281485,4.480248 0.565465,0.424098 2.36647,0.858094 3.780132,0.603634 1.44197,-0.480644 1.439813,-8.478085 1.439813,-8.478085 0,0 0.667603,-5.407964 1.600619,-6.397527 0.622011,-0.622011 4.901523,-0.854559 4.222962,-2.409587 -0.537185,-1.668122 -0.500427,-2.185522 -0.415615,-4.334287 0.08482,-1.752942 -3.807472,0.187014 -4.287284,-3.651489 C 73.753717,55.472435 72.793578,49.713769 69.115012,46.355079 65.436447,42.99639 57.842631,33.996038 53.044503,29.997598 48.246375,25.999157 42.082371,24.136973 40.964408,23.966208 c -1.115542,-0.170395 -1.1882,-4.121739 -2.172092,-3.86672 -1.801692,0.324415 -1.75344,0.282017 -3.743023,-0.272128 -0.08129,-0.01591 -0.162046,-0.0191 -0.239969,-0.0099 z m -12.473446,8.821958 c 0,0 15.040303,1.243316 20.808044,3.844453 5.767741,2.601139 21.488722,12.554025 22.732744,23.071671 1.244024,10.517644 0.905452,19.791268 0.905452,19.791268 0,0 -43.090539,-3.731361 -44.67384,-4.636105 -1.244023,-0.904743 0.2276,-42.071287 0.2276,-42.071287 z"
       id="path4180"
       inkscape:connector-curvature="0" />
  </g>
  <g
     inkscape:groupmode="layer"
     id="layer3"
     inkscape:label="axe"
     style="display:none">
    <path
       style="opacity:0.5;fill:#2b1100;fill-rule:evenodd;stroke:#000000;stroke-width:1.96057546px;stroke-linecap:butt;stroke-linejoin:miter;stroke-opacity:1"
       d="m 18.889587,81.046356 c 0,0 0.0637,1.048375 1.917145,2.689509 1.853449,1.641133 2.912441,1.752166 2.912441,1.752166 L 58.38669,45.588645 c 0,0 2.742587,-1.043499 2.480925,1.866071 -0.261662,2.909571 -10.193391,12.632439 -10.193391,12.632439 0,0 16.19473,2.435872 25.260559,-8.549692 9.065828,-10.985565 7.447069,-18.866741 7.447069,-18.866741 0,0 -8.041554,9.081905 -12.653949,5.328529 -2.695077,-2.193146 -2.012688,-4.262073 -4.782247,-6.549042 -2.769554,-2.28698 -4.83294,-1.966844 -5.999611,-3.493722 -3.905731,-5.111616 3.881909,-12.599726 3.881909,-12.599726 0,0 -13.753397,0.221789 -21.040087,11.625383 -7.286691,11.403594 -3.860503,23.957934 -3.860503,23.957934 0,0 9.442537,-11.336492 11.087324,-12.161539 2.238246,-1.122734 3.47585,-0.170454 2.411982,2.524795 -1.063866,2.69525 -33.537083,39.743022 -33.537083,39.743022 z"
       id="path4242"
       inkscape:connector-curvature="0"
       sodipodi:nodetypes="csccscscssscscssc" />
  </g>
  <g
     inkscape:groupmode="layer"
     id="layer4"
     inkscape:label="ring"
     style="display:none">
    <path
       style="opacity:0.5;fill:#2b1100;fill-rule:evenodd;stroke:#000000;stroke-width:1.46100044px;stroke-linecap:butt;stroke-linejoin:miter;stroke-opacity:1"
       d="m 50.450295,22.074706 -2.859223,4.057701 -7.470505,0 c 0,0 -4.335144,3.506479 -6.825612,5.25903 -2.490468,1.752553 -5.392361,1.527757 -8.303733,7.932777 -1.383594,3.043907 -2.397159,9.960016 0.462269,18.353818 3.255279,9.555818 12.544014,15.219669 19.646461,18.724774 7.10245,3.505104 17.434927,3.875424 20.847792,1.569435 3.412864,-2.305991 5.349344,-5.810425 5.164865,-11.990477 -0.18448,-6.180051 -2.767418,-11.714551 -4.51997,-15.035178 -1.752553,-3.320624 8.54e-4,-8.82e-4 -0.368105,-7.01109 l 1.475268,-0.921686 0.09131,-3.136014 -3.321494,-2.214329 0.18548,-8.854462 -10.32973,-6.366195 -3.875076,-0.368104 z M 33.996921,43.162193 c 0.611087,0.05765 1.141406,0.21972 1.141406,0.21972 l 8.209566,6.734299 1.843372,0.368105 3.689598,4.057699 6.180715,0.185479 c 0,0 4.796123,6.27368 5.995239,8.948628 1.199114,2.674948 2.051703,7.083348 0.90171,7.747298 C 58.18275,72.726914 52.216201,72.528934 48.144654,69.853986 44.146328,67.227144 37.074286,63.027999 34.676056,57.954823 32.277827,52.881646 31.724738,44.397548 32.370415,43.567392 c 0.322839,-0.415078 1.015417,-0.462848 1.626506,-0.405199 z"
       id="path4315"
       inkscape:connector-curvature="0" />
  </g>
  <g
     inkscape:groupmode="layer"
     id="layer5"
     inkscape:label="hammer"
     style="display:none">
    <path
       style="opacity:0.5;fill:#2b1100;fill-rule:evenodd;stroke:#000000;stroke-width:0.70984691px;stroke-linecap:butt;stroke-linejoin:miter;stroke-opacity:1"
       d="m 15.718038,39.167116 c 0,0 5.323189,-12.488466 5.830885,-13.384575 1.696429,-0.424107 20.027824,5.398797 20.534858,7.680448 0.507033,2.281651 -0.380276,8.239295 -0.760551,9.633637 -0.380275,1.394342 -1.140825,3.042201 -1.140825,3.042201 l 49.05549,16.732106 c 0,0 1.140831,1.014067 0.633794,3.042201 -0.507036,2.028134 -2.535168,2.154893 -2.535168,2.154893 L 38.154271,51.969713 33.717728,64.011759 c -0.17362,0.505076 -3.012102,3.644426 -3.422476,3.675993 -0.552427,0.01578 -16.749358,-5.799808 -17.112382,-5.957644 -0.568211,-0.441942 -1.236506,-3.18719 -1.394342,-3.802752 -0.07892,-0.489293 -0.76055,-5.957643 -0.76055,-5.957643 l 2.796373,-8.522909 -0.894997,-0.730453 c 0,0 -0.0301,-1.476944 0.730453,-2.61777 0.214045,-0.321068 0.448226,-0.736865 0.706458,-0.878812 0.659325,-0.362425 1.351773,-0.05266 1.351773,-0.05265 z"
       id="path4352"
       inkscape:connector-curvature="0"
       sodipodi:nodetypes="ccssccscccccccccssc" />
  </g>
  <g
     inkscape:groupmode="layer"
     id="layer6"
     inkscape:label="shield"
     style="display:none">
    <path
       style="opacity:0.5;fill:#2b1100;fill-rule:evenodd;stroke:#000000;stroke-width:0.87190002px;stroke-linecap:butt;stroke-linejoin:miter;stroke-opacity:1"
       d="m 70.029279,8.1485971 c 0,0 7.42829,5.3845869 9.679287,11.8460909 2.250997,6.461504 2.701196,12.923008 2.701196,12.923008 0,0 -4.501994,-6.24612 -5.852592,-2.799985 -1.350598,3.446135 -0.2251,8.399955 -0.450199,10.984557 -0.2251,2.584602 -2.926297,12.707625 -6.978091,19.384513 -4.051794,6.676888 -21.609571,27.999856 -21.609571,27.999856 0,0 -13.055783,-15.507615 -17.782877,-24.769104 -4.727093,-9.261489 -7.615322,-23.317996 -7.067376,-25.383927 0.632541,-2.384879 1.214785,-9.292813 -1.936611,-9.938963 -3.151396,-0.64615 -3.376496,2.369219 -3.376496,2.369219 0,0 0.675299,-8.830723 3.376496,-13.353776 2.701196,-4.523053 5.852592,-8.1845719 5.852592,-8.1845719 0,0 0.900399,4.5230529 4.501994,7.3230389 3.601595,2.799984 11.930284,3.230752 17.557777,3.446135 5.627492,0.215383 15.982078,-0.215383 19.358573,-3.876903 3.376496,-3.661519 2.025898,-7.9691879 2.025898,-7.9691879 z"
       id="path4385"
       inkscape:connector-curvature="0"
       sodipodi:nodetypes="cscssscssscscsssc" />
  </g>
  <g
     inkscape:groupmode="layer"
     id="layer7"
     inkscape:label="sword"
     style="display:none">
    <path
       style="opacity:0.5;fill:#2b1100;fill-opacity:0.54571425;fill-rule:evenodd;stroke:#000000;stroke-width:1.36197639px;stroke-linecap:butt;stroke-linejoin:miter;stroke-opacity:1"
       d="m 9.8471413,67.163976 c 0,0 1.8057417,0.515927 2.8375957,0.171977 1.031852,-0.343952 12.726186,-5.933155 13.156125,-7.136983 0.429938,-1.203829 0.601913,-1.719755 -0.343952,-3.181546 -0.945864,-1.461792 -2.321668,-1.375805 -2.321668,-1.375805 0,0 1.203828,-2.923583 2.149692,-4.385375 0.945866,-1.461791 4.98729,-0.257962 4.98729,-0.257962 -1.941039,0.844941 -1.814422,1.208363 -2.321661,2.751607 -0.343952,1.203828 -0.257965,3.00957 0.257963,3.43951 0.515926,0.429939 5.288245,-2.859093 5.288245,-2.859093 0,0 0.363658,-1.833984 1.074847,-2.214184 0.577517,-0.308739 2.579633,0.601914 2.579633,0.601914 0,0 49.099002,-26.828175 49.872892,-26.914165 0.773889,-0.08598 5.761178,-0.08598 5.761178,-0.08598 0,0 -2.392242,4.634929 -3.166131,4.978881 -0.773889,0.34395 -49.262853,28.591808 -49.262853,28.591808 0,0 0.03294,1.193544 -0.311014,1.70947 0,0 -1.131551,1.40284 -3.495993,0.146798 0,0 -4.55735,2.665619 -4.55735,3.095558 0,0.429939 2.321668,2.149694 2.923584,2.063707 0.601914,-0.08598 1.203829,0 1.461791,-0.687904 0.257964,-0.687901 0.515926,-1.289816 0.515926,-1.289816 0,0 1.461793,1.89173 -0.08598,3.611486 -1.54778,1.719756 -4.471363,2.063706 -5.417227,1.547779 -0.945866,-0.515927 -1.633767,-1.203828 -1.633767,-1.203828 0,0 0.773889,-1.461791 -0.515927,-2.751608 -1.289815,-1.289816 -1.031852,-0.515926 -1.031852,-0.515926 0,0 -12.726188,6.363092 -13.414089,6.965007 -0.687902,0.601915 -0.77389,1.805743 -0.77389,1.805743 0,0 -4.6433367,1.11784 -5.4172273,-0.257964 -0.7738895,-1.375804 1.2038276,-6.363093 1.2038196,-6.363106 z"
       id="path4456"
       inkscape:connector-curvature="0"
       sodipodi:nodetypes="cssscsccscscscscccssscsscscscsc" />
  </g>
  <g
     inkscape:groupmode="layer"
     id="layer8"
     inkscape:label="rune"
     style="display:none">
    <path
       style="opacity:0.5;fill:#2b1100;fill-rule:evenodd;stroke:#000000;stroke-width:0.59797686px;stroke-linecap:butt;stroke-linejoin:miter;stroke-opacity:1"
       d="m 63.956917,42.636436 c -0.780971,3.48704 -4.306963,25.470257 -6.649419,27.292167 -1.106159,1.10616 -2.285915,1.994996 -7.01949,1.813911 -4.733575,-0.181092 -6.38221,-1.23201 -7.228096,-3.05392 -0.520546,-0.976023 -3.783227,-22.442473 -3.741934,-24.908085 0.03173,-1.894549 7.695346,-21.204691 13.148494,-19.725975 5.453147,1.478713 11.490445,18.581902 11.490445,18.581902 z"
       id="path4489"
       inkscape:connector-curvature="0"
       sodipodi:nodetypes="ccscssc" />
    <path
       style="opacity:0.5;fill:none;fill-rule:evenodd;stroke:#000000;stroke-width:1.32119858px;stroke-linecap:butt;stroke-linejoin:miter;stroke-opacity:1"
       d="m 48.860485,33.072908 c -0.542487,3.372766 1.489368,3.655911 1.489368,3.655911 l -0.378154,22.58673 c 0,0 1.305046,-12.047625 3.350226,-14.104764 2.045181,-2.057139 3.549892,-2.644698 3.549892,-2.644698 l -0.496241,8.433508 -9.895896,-6.563012 3.663213,1.879907 0.364087,-9.264425 c 0,0 1.299969,0.471063 1.84277,-0.631997 0.5428,-1.103059 -0.192249,0.804785 -1.06645,0.782138 -0.874195,-0.02264 -2.291507,-1.211936 -2.3952,-2.000743 -0.103693,-0.788805 -0.02761,-2.128558 -0.02761,-2.128558 z"
       id="path4502"
       inkscape:connector-curvature="0" />
  </g>
  <g
     inkscape:groupmode="layer"
     id="layer9"
     inkscape:label="staff">
    <path
       style="fill:#552200;fill-rule:evenodd;stroke:#000000;stroke-width:1px;stroke-linecap:butt;stroke-linejoin:miter;stroke-opacity:1;opacity:0.5"
       d="m 54.26587,46.68499 c 0,0 1.12928,6.132698 -3.303513,8.576695 -4.432794,2.443996 -6.637667,2.1023 -7.34489,1.594731 -0.707223,-0.507569 -9.219543,16.018665 -9.219543,16.018665 0,0 -29.4629131,6.713707 -30.7483578,4.585713 C 2.3641214,75.3328 18.887173,51.56386 18.887173,51.56386 L 35.54697,45.70677 c 0,0 -0.547733,-3.265213 3.277669,-5.609385 3.95483,-2.716288 6.594499,-2.349075 10.374322,-1.468823 L 90.089715,10.323627 c 0,0 1.214791,-0.199654 2.17369,0.890354 0.958898,1.090008 0.752919,2.683368 0.752919,2.683368 z"
       id="path4535"
       inkscape:connector-curvature="0"
       sodipodi:nodetypes="csscscccccscc" />
  </g>
</svg>
