<?xml version="1.0" encoding="UTF-8" standalone="no"?>
<svg
   xmlns:dc="http://purl.org/dc/elements/1.1/"
   xmlns:cc="http://creativecommons.org/ns#"
   xmlns:rdf="http://www.w3.org/1999/02/22-rdf-syntax-ns#"
   xmlns:svg="http://www.w3.org/2000/svg"
   xmlns="http://www.w3.org/2000/svg"
   version="1.1"
   id="svg2"
   viewBox="0 0 100 100"
   height="100"
   width="100">
  <defs
     id="defs4" />
  <g
     id="layer4">
    <path
       id="path4315"
       d="m 50.450295,22.074706 -2.859223,4.057701 -7.470505,0 c 0,0 -4.335144,3.506479 -6.825612,5.25903 -2.490468,1.752553 -5.392361,1.527757 -8.303733,7.932777 -1.383594,3.043907 -2.397159,9.960016 0.462269,18.353818 3.255279,9.555818 12.544014,15.219669 19.646461,18.724774 7.10245,3.505104 17.434927,3.875424 20.847792,1.569435 3.412864,-2.305991 5.349344,-5.810425 5.164865,-11.990477 -0.18448,-6.180051 -2.767418,-11.714551 -4.51997,-15.035178 -1.752553,-3.320624 8.54e-4,-8.82e-4 -0.368105,-7.01109 l 1.475268,-0.921686 0.09131,-3.136014 -3.321494,-2.214329 0.18548,-8.854462 -10.32973,-6.366195 -3.875076,-0.368104 z M 33.996921,43.162193 c 0.611087,0.05765 1.141406,0.21972 1.141406,0.21972 l 8.209566,6.734299 1.843372,0.368105 3.689598,4.057699 6.180715,0.185479 c 0,0 4.796123,6.27368 5.995239,8.948628 1.199114,2.674948 2.051703,7.083348 0.90171,7.747298 C 58.18275,72.726914 52.216201,72.528934 48.144654,69.853986 44.146328,67.227144 37.074286,63.027999 34.676056,57.954823 32.277827,52.881646 31.724738,44.397548 32.370415,43.567392 c 0.322839,-0.415078 1.015417,-0.462848 1.626506,-0.405199 z"
       style="fill:#2b1100;fill-rule:evenodd;stroke:#000000;stroke-width:1.46100044px;stroke-linecap:butt;stroke-linejoin:miter;stroke-opacity:1;opacity:0.5" />
  </g>
</svg>
