<?xml version="1.0" encoding="UTF-8" standalone="no"?>
<svg
   xmlns:dc="http://purl.org/dc/elements/1.1/"
   xmlns:cc="http://creativecommons.org/ns#"
   xmlns:rdf="http://www.w3.org/1999/02/22-rdf-syntax-ns#"
   xmlns:svg="http://www.w3.org/2000/svg"
   xmlns="http://www.w3.org/2000/svg"
   version="1.1"
   id="svg2"
   viewBox="0 0 100 100"
   height="100"
   width="100">
  <defs
     id="defs4" />
  <g
     id="layer8">
    <path
       id="path4489"
       d="m 63.956917,42.636436 c -0.780971,3.48704 -4.306963,25.470257 -6.649419,27.292167 -1.106159,1.10616 -2.285915,1.994996 -7.01949,1.813911 -4.733575,-0.181092 -6.38221,-1.23201 -7.228096,-3.05392 -0.520546,-0.976023 -3.783227,-22.442473 -3.741934,-24.908085 0.03173,-1.894549 7.695346,-21.204691 13.148494,-19.725975 5.453147,1.478713 11.490445,18.581902 11.490445,18.581902 z"
       style="fill:#2b1100;fill-rule:evenodd;stroke:#000000;stroke-width:0.59797686px;stroke-linecap:butt;stroke-linejoin:miter;stroke-opacity:1;opacity:0.5" />
    <path
       id="path4502"
       d="m 48.860485,33.072908 c -0.542487,3.372766 1.489368,3.655911 1.489368,3.655911 l -0.378154,22.58673 c 0,0 1.305046,-12.047625 3.350226,-14.104764 2.045181,-2.057139 3.549892,-2.644698 3.549892,-2.644698 l -0.496241,8.433508 -9.895896,-6.563012 3.663213,1.879907 0.364087,-9.264425 c 0,0 1.299969,0.471063 1.84277,-0.631997 0.5428,-1.103059 -0.192249,0.804785 -1.06645,0.782138 -0.874195,-0.02264 -2.291507,-1.211936 -2.3952,-2.000743 -0.103693,-0.788805 -0.02761,-2.128558 -0.02761,-2.128558 z"
       style="fill:none;fill-rule:evenodd;stroke:#000000;stroke-width:1.32119858px;stroke-linecap:butt;stroke-linejoin:miter;stroke-opacity:1;opacity:0.5" />
  </g>
</svg>
