<?xml version="1.0" encoding="UTF-8" standalone="no"?>
<svg
   xmlns:dc="http://purl.org/dc/elements/1.1/"
   xmlns:cc="http://creativecommons.org/ns#"
   xmlns:rdf="http://www.w3.org/1999/02/22-rdf-syntax-ns#"
   xmlns:svg="http://www.w3.org/2000/svg"
   xmlns="http://www.w3.org/2000/svg"
   version="1.1"
   id="svg2"
   viewBox="0 0 100 100"
   height="100"
   width="100">
  <defs
     id="defs4" />
  <g
     id="layer9">
    <path
       id="path4535"
       d="m 54.26587,46.68499 c 0,0 1.12928,6.132698 -3.303513,8.576695 -4.432794,2.443996 -6.637667,2.1023 -7.34489,1.594731 -0.707223,-0.507569 -9.219543,16.018665 -9.219543,16.018665 0,0 -29.4629131,6.713707 -30.7483578,4.585713 C 2.3641214,75.3328 18.887173,51.56386 18.887173,51.56386 L 35.54697,45.70677 c 0,0 -0.547733,-3.265213 3.277669,-5.609385 3.95483,-2.716288 6.594499,-2.349075 10.374322,-1.468823 L 90.089715,10.323627 c 0,0 1.214791,-0.199654 2.17369,0.890354 0.958898,1.090008 0.752919,2.683368 0.752919,2.683368 z"
       style="fill:#552200;fill-rule:evenodd;stroke:#000000;stroke-width:1px;stroke-linecap:butt;stroke-linejoin:miter;stroke-opacity:1;opacity:0.5" />
  </g>
</svg>
